# xmcd
#
# Track frame offsets: 
#        150
#        16240
#        33086
#        48680
#        64099
#        80380
#        97742
#        115145
#        133569
#        148890
#        165286
#        178649
#        192315
#        204713
#        220429
#        231410
#        248563
#        261600
#        279625
#
# Disc length: 3897 seconds
#
# Revision: 0
# Processed by: cddbd v1.5.2PL0 Copyright (c) Steve Scherf et al.
# Submitted via: ExactAudioCopy v0.95b4
#
DISCID=150f3713
DTITLE=Константин Юдичев - Константин Юдичев
DYEAR=1900
DGENRE=Бард
TTITLE0=Непристойная крепость
TTITLE1=Ангел за спиной
TTITLE2=Слово волны
TTITLE3=Всю жизнь в пути
TTITLE4=Семь иноков
TTITLE5=Духов день
TTITLE6=Две дороги
TTITLE7=Тысячелетний (Пантелеймон целитель)
TTITLE8=Вестник
TTITLE9=Хранитель
TTITLE10=Воспоминания о будущем
TTITLE11=Новый гость
TTITLE12=Голос твой
TTITLE13=Большая птица
TTITLE14=Прелюдия №6 G-mou (Пьеса для Фортепиано)
TTITLE15="Микро"картинки с выставки (Пьеса для фортепиано)
TTITLE16="Микро"картинки с выставки (Пьеса для фортепиано) 2
TTITLE17="Микро"картинки с выставки (Пьеса для фортепиано) 3
TTITLE18="Микро"картинки с выставки (Пьеса для фортепиано) 4
EXTD=
EXTT0=
EXTT1=
EXTT2=
EXTT3=
EXTT4=
EXTT5=
EXTT6=
EXTT7=
EXTT8=
EXTT9=
EXTT10=
EXTT11=
EXTT12=
EXTT13=
EXTT14=
EXTT15=
EXTT16=
EXTT17=
EXTT18=
PLAYORDER=
